# xmcd
#
# Track frame offsets:
#	150
#	16980
#	30367
#	46570
#	62485
#	85185
#	95555
#	107760
#	124772
#	141602
#	152872
#
# Disc length: 2202
#
# Revision: 1
# Processed by: cddbd v1.5.1PL0 Copyright (c) Steve Scherf et al.
# Submitted via: dBpowerAMP V4.0
# Normalized: r0:TSWAP
#
DISCID=8608980b
DTITLE=Various Artist - Raw blues
DYEAR=1900
DGENRE=Blues
TTITLE0=John Lee Hooker - My first wife left me
TTITLE1=Lighting Slim - That's all right
TTITLE2=Jimmy Reed - Cold and lonesome
TTITLE3=Little Walter and Otis Rush - Walter's blues
TTITLE4=Lightin Hopkins - I'll be gone
TTITLE5=Mike Bloom field - RX for the blues
TTITLE6=Lighting Slim - Rooster blues
TTITLE7=Bo Didley - Mona (I need you baby)
TTITLE8=John Hurt - Lonesome blues
TTITLE9=John Lee Hooker - Boom boom
TTITLE10=Ray Charles - Rockin chair blues
EXTD=Art Cardinal  This is volume two    
EXTT0=
EXTT1=
EXTT2=
EXTT3=
EXTT4=
EXTT5=
EXTT6=
EXTT7=
EXTT8=
EXTT9=
EXTT10=
PLAYORDER=
